PathFileType	4	(X/Y/Z)	C:\Vicon\SynologyDrive\Alex P\Athlete_3\Athlete_3_22_07_06\static_01\marker_experimental.trc																																																																																																																																																																																																																																											
DataRate	CameraRate	NumFrames	NumMarkers	Units	OrigDataRate	OrigDataStartFrame	OrigNumFrames																																																																																																																																																																																																																																							
200	200	4	79	mm	200	519	693																																																																																																																																																																																																																																							
Frame#	Time	GLAB			RFHD			LFHD			C7			T6			SPINMOL			SPINM2			SPINM3			T12			BELTOL			BELT2			BELT3			SACROL			SACR2			SACR3			LASI			RASI			LPSI			RPSI			LTHOL			LTH2			LTH3			LKNEL			LKNEM			LFIB			LSHAOL			LSHA2			LSHA3			LMALL			LMALM			LHEE			LTOE			LM5			RTHOL			RTH2			RTH3			RKNEL			RKNEM			RFIB			RSHAOL			RSHA2			RSHA3			RMALL			RMALM			RHEE			RTOE			RM5			STRN			XIPH			LACR			LUAOL			LUA2			LUA3			LCUBL			LCUBM			LLAOL			LLA2			LLA3			LWRR			LWRU			RACR			RUAOL			RUA2			RUA3			RCUBL			RCUBM			RLAOL			RLA2			RLA3			RWRR			RWRU			Bar:BL			Bar:BR			LKJCWK			RKJCWK			RAJCWK			LAJCWK			RHJCWK			LHJCWK		
		X1	Y1	Z1	X2	Y2	Z2	X3	Y3	Z3	X4	Y4	Z4	X5	Y5	Z5	X6	Y6	Z6	X7	Y7	Z7	X8	Y8	Z8	X9	Y9	Z9	X10	Y10	Z10	X11	Y11	Z11	X12	Y12	Z12	X13	Y13	Z13	X14	Y14	Z14	X15	Y15	Z15	X16	Y16	Z16	X17	Y17	Z17	X18	Y18	Z18	X19	Y19	Z19	X20	Y20	Z20	X21	Y21	Z21	X22	Y22	Z22	X23	Y23	Z23	X24	Y24	Z24	X25	Y25	Z25	X26	Y26	Z26	X27	Y27	Z27	X28	Y28	Z28	X29	Y29	Z29	X30	Y30	Z30	X31	Y31	Z31	X32	Y32	Z32	X33	Y33	Z33	X34	Y34	Z34	X35	Y35	Z35	X36	Y36	Z36	X37	Y37	Z37	X38	Y38	Z38	X39	Y39	Z39	X40	Y40	Z40	X41	Y41	Z41	X42	Y42	Z42	X43	Y43	Z43	X44	Y44	Z44	X45	Y45	Z45	X46	Y46	Z46	X47	Y47	Z47	X48	Y48	Z48	X49	Y49	Z49	X50	Y50	Z50	X51	Y51	Z51	X52	Y52	Z52	X53	Y53	Z53	X54	Y54	Z54	X55	Y55	Z55	X56	Y56	Z56	X57	Y57	Z57	X58	Y58	Z58	X59	Y59	Z59	X60	Y60	Z60	X61	Y61	Z61	X62	Y62	Z62	X63	Y63	Z63	X64	Y64	Z64	X65	Y65	Z65	X66	Y66	Z66	X67	Y67	Z67	X68	Y68	Z68	X69	Y69	Z69	X70	Y70	Z70	X71	Y71	Z71	X72	Y72	Z72	X73	Y73	Z73	X74	Y74	Z74	X75	Y75	Z75	X76	Y76	Z76	X77	Y77	Z77	X78	Y78	Z78	X79	Y79	Z79
																																																																																																																																																																																																																																														
520	2.595	352.5282898	1574.510254	-1217.543091	293.7982483	1589.109863	-1140.947632	289.3370361	1589.257202	-1293.126343	129.2276611	1448.65918	-1213.460693	76.77109528	1243.260376	-1227.643188	72.72409058	1211.159302	-1231.664795	68.09499359	1150.518921	-1179.46228	77.57204437	1149.343506	-1228.426147	91.01887512	1108.88501	-1227.224609	68.2756958	1086.324707	-1226.562012	69.72523499	1026.761475	-1173.412476	62.21654892	1024.52478	-1223.036499	72.9047699	975.4147949	-1248.359253	79.77779388	985.0344849	-1198.560059	49.41426086	926.946106	-1209.823853	289.0791321	942.5591431	-1336.718872	292.9402161	942.2786255	-1109.007202	84.37967682	991.4458008	-1260.167725	85.03330994	990.0968628	-1170.907715	203.3013	737.5447388	-1444.043579	154.0367432	676.9611206	-1427.277222	202.3482513	675.5510254	-1441.317993	193.455658	497.7258606	-1427.470215	216.9397736	465.9761353	-1283.648071	153.2184601	442.2351685	-1428.449829	145.5435791	326.2826538	-1449.988647	102.1974716	260.3414917	-1444.628174	151.5712128	264.38974	-1450.225098	126.2086105	85.36737061	-1434.110962	169.4417572	96.31812286	-1350.45166	78.45885468	38.95368958	-1374.815796	289.6835938	47.31601715	-1391.233765	238.5700836	32.10426331	-1492.1521	175.372467	708.2977905	-1006.627441	206.6952209	636.0551758	-992.74646	160.9333344	647.6664429	-1009.808289	160.8199615	496.9242554	-1014.041321	209.3655701	461.4742737	-1151.751831	116.817421	442.5344238	-1015.594116	91.51570892	323.3423767	-998.5853271	131.0809021	256.100647	-983.2540894	85.06269836	262.2468872	-1002.481384	90.09370422	86.79232025	-1016.823853	153.0894775	97.00577545	-1084.30835	58.08030701	38.27846909	-1077.694824	261.5897522	43.18689728	-1022.30072	202.3587036	40.96326065	-937.2033081	279.6968384	1368.510376	-1225.785156	318.5058289	1210.774536	-1227.216309	140.3981323	1413.521851	-1401.610352	129.1195068	1348.387085	-1515.336914	120.4932938	1298.013428	-1558.013184	154.3503418	1333.821533	-1574.771362	166.8876495	1296.908936	-1683.193237	189.7019196	1210.814453	-1633.283447	196.5132294	1265.538086	-1768.696655	202.8279572	1229.227783	-1823.226074	241.3817596	1260.791138	-1816.562256	311.3085938	1189.755249	-1861.689575	254.1309662	1211.647827	-1904.565308	157.3181458	1403.782471	-1042.7229	168.2373352	1337.342651	-909.8602905	218.5671844	1329.394775	-866.920105	173.4685516	1317.828369	-846.3395996	166.1520233	1291.436035	-795.7601929	222.3415375	1197.994873	-809.1048584	224.1034088	1274.564453	-673.1087646	274.9746399	1263.286255	-633.4206543	230.1300812	1250.364746	-613.1204224	313.1146851	1183.566528	-580.2858887	246.7936096	1215.639526	-543.8565674	1512.080444	1285.453369	-2307.392334	1540.673584	1283.411377	0	205.1977	481.851	-1355.5591	185.0928	479.1993	-1082.8966	119.8772	81.443	-1049.6933	146.2742	80.2726	-1393.274	233.3495	873.6056	-1139.4899	230.5532	873.8088	-1304.402
521	2.6	352.4936829	1574.517578	-1217.567871	293.7674255	1589.119507	-1140.956421	289.3050232	1589.261963	-1293.130371	129.1994476	1448.661011	-1213.4646	76.74720764	1243.258301	-1227.649658	72.71142578	1211.154175	-1231.672363	68.08839417	1150.519653	-1179.460449	77.55778503	1149.341309	-1228.432007	91.01165771	1108.884766	-1227.231567	68.27147675	1086.324829	-1226.562378	69.72801208	1026.754639	-1173.423828	62.22213364	1024.524414	-1223.045044	72.82635498	975.4456177	-1248.389771	79.76750946	985.0269165	-1198.571289	49.40050125	926.9381104	-1209.826904	289.0702209	942.5524292	-1336.719116	292.9322815	942.2767334	-1109.00647	84.37974548	991.4483643	-1260.175171	85.02109528	990.098938	-1170.909912	203.3131866	737.5461426	-1444.043335	154.0509796	676.9544067	-1427.276001	202.3520355	675.5548096	-1441.323486	193.4521637	497.7225342	-1427.470459	216.9485168	465.9755249	-1283.654785	153.216629	442.2309875	-1428.454712	145.5427856	326.2767944	-1449.984497	102.2005463	260.3447876	-1444.635742	151.5645447	264.3907166	-1450.224731	126.20504	85.36997986	-1434.114136	169.4438171	96.32130432	-1350.45752	78.46208191	38.9528389	-1374.815674	289.6843872	47.32192993	-1391.232544	238.5795135	32.11047363	-1492.148682	175.3681946	708.2992554	-1006.629639	206.6888733	636.0689697	-992.737793	160.9322205	647.6653442	-1009.812256	160.8144989	496.9305115	-1014.039368	209.3691254	461.4754944	-1151.742676	116.8117218	442.5312195	-1015.6026	91.40514374	323.3444824	-998.3270874	131.0865173	256.1024475	-983.2562256	85.06394958	262.2414856	-1002.481567	90.09667969	86.7902298	-1016.824097	153.0939789	97.01169586	-1084.309692	58.08832169	38.28011322	-1077.692261	261.605896	43.20645905	-1022.254761	202.3522797	40.96873093	-937.2102051	279.6893921	1368.531738	-1225.788452	318.5307922	1210.803101	-1227.222412	140.3669128	1413.538208	-1401.609863	129.1319885	1348.406738	-1515.346313	120.4874878	1298.032959	-1558.021484	154.3632507	1333.848633	-1574.77002	166.896286	1296.931274	-1683.197998	189.7239685	1210.830688	-1633.291382	196.5278778	1265.572144	-1768.708984	202.8332367	1229.268677	-1823.242676	241.3881989	1260.829468	-1816.575684	311.3102722	1189.799927	-1861.701782	254.12677	1211.683228	-1904.568237	157.2960815	1403.799927	-1042.72644	168.2196198	1337.38208	-909.8442383	218.5500031	1329.426025	-866.8953247	173.4423065	1317.88269	-846.3277588	166.1340485	1291.474365	-795.7537842	222.3192291	1198.028564	-809.0858765	224.1020508	1274.584717	-673.0467529	274.8808594	1263.501465	-633.5828247	230.1880035	1250.30188	-613.1556396	313.1116333	1183.643188	-580.2612915	246.8017731	1215.723755	-543.8377075	1512.097412	1285.471313	-2307.403809	1540.68042	1283.418335	0	205.2003	481.849	-1355.5626	185.0918	479.203	-1082.891	119.8811	81.4448	-1049.6942	146.2734	80.2756	-1393.2786	233.3392	873.605	-1139.4879	230.5422	873.8047	-1304.4
522	2.605	352.4716187	1574.517212	-1217.58606	293.7562561	1589.122803	-1140.970337	289.2782593	1589.258301	-1293.142944	129.1837006	1448.649902	-1213.454468	76.7313385	1243.260498	-1227.650391	72.68909454	1211.158203	-1231.683228	68.07526398	1150.507813	-1179.46521	77.54888153	1149.339478	-1228.432251	90.99691772	1108.883179	-1227.233276	68.27160645	1086.323853	-1226.566772	69.71990967	1026.758545	-1173.425659	62.21657562	1024.524048	-1223.056763	72.82364655	975.4454956	-1248.375366	79.77147675	985.0328979	-1198.576782	49.38347626	926.925354	-1209.824463	289.078186	942.5501099	-1336.724487	292.927124	942.2745361	-1109.001343	84.36443329	991.4499512	-1260.178467	85.01346588	990.1046753	-1170.914551	203.3246765	737.5472412	-1444.044434	154.0525513	676.9608154	-1427.293823	202.3671417	675.5534668	-1441.333374	193.4590302	497.7181396	-1427.473145	216.9562988	465.9751587	-1283.656006	153.2185669	442.2320557	-1428.455566	145.54599	326.2771912	-1449.986328	102.2037964	260.3454895	-1444.630981	151.5666046	264.3898621	-1450.222656	126.2147598	85.3690567	-1434.113647	169.4508209	96.32349396	-1350.457642	78.4431076	38.96037674	-1374.822998	289.6825562	47.32111359	-1391.235352	238.5756378	32.1075058	-1492.143677	175.3625183	708.3024902	-1006.631409	206.6851349	636.0709229	-992.7459106	160.9329834	647.6672363	-1009.81842	160.8081055	496.936554	-1014.041077	209.3677063	461.4822083	-1151.744873	116.8113174	442.5358276	-1015.601563	91.525177	323.350708	-998.5997314	131.0797577	256.104126	-983.2536011	85.06530762	262.247406	-1002.484131	90.09864807	86.79532623	-1016.825012	153.0896149	97.00856781	-1084.312012	58.08177948	38.28622437	-1077.69397	261.6064758	43.20640564	-1022.25238	202.3509674	40.96969986	-937.206665	279.6876221	1368.544556	-1225.792725	318.5448914	1210.825806	-1227.216064	140.3595581	1413.539673	-1401.610107	129.1356812	1348.427979	-1515.380981	120.47995	1298.050171	-1558.045288	154.3629913	1333.864136	-1574.78479	166.896698	1296.954956	-1683.197754	189.7385559	1210.855347	-1633.299683	196.5142517	1265.602539	-1768.709961	202.8327942	1229.290527	-1823.262451	241.3867645	1260.858154	-1816.578857	311.318512	1189.842041	-1861.715088	254.1272583	1211.718262	-1904.578125	157.2787933	1403.813232	-1042.726196	168.1928711	1337.39209	-909.8184814	218.4847412	1329.296631	-866.9604492	173.42659	1317.921875	-846.3261719	166.1196899	1291.510864	-795.7439575	222.4457245	1198.251709	-809.0422974	224.0753021	1274.435059	-673.2941895	274.8956604	1263.586426	-633.5556641	230.1253662	1250.489624	-613.0966187	313.1104126	1183.727295	-580.2445679	246.8071747	1215.804932	-543.8190918	1512.085815	1285.449219	-2307.396973	1540.670288	1283.418457	0	205.2077	481.8466	-1355.5646	185.0879	479.2094	-1082.893	119.88	81.4458	-1049.6958	146.2817	80.2762	-1393.2783	233.3348	873.6036	-1139.4913	230.5474	873.8032	-1304.404
523	2.61	352.4375916	1574.528076	-1217.613525	293.7409973	1589.128052	-1140.982666	289.237854	1589.259155	-1293.158325	129.1646729	1448.649414	-1213.459351	76.71425629	1243.263794	-1227.648926	72.67603302	1211.147095	-1231.682251	68.05527496	1150.510132	-1179.46106	77.53742218	1149.33667	-1228.431152	90.98822021	1108.883301	-1227.237061	68.26795959	1086.320557	-1226.572144	69.71244049	1026.753784	-1173.435791	62.21298599	1024.520386	-1223.059692	72.83220673	975.4556885	-1248.386108	79.76036835	985.0400391	-1198.586792	49.38925171	926.9257202	-1209.827637	289.0765686	942.5523071	-1336.72937	292.9196777	942.2738647	-1109.003052	84.36537933	991.4470825	-1260.179321	85.01805878	990.0997314	-1170.920288	203.320694	737.5458984	-1444.03833	154.0549622	676.9492798	-1427.297852	202.3670959	675.552063	-1441.332031	193.4609375	497.7167664	-1427.477905	217.0150452	465.9749756	-1283.424438	153.2214508	442.2336121	-1428.45813	145.5488892	326.2736511	-1449.989014	102.20401	260.3441162	-1444.632813	151.5673523	264.3927002	-1450.224731	126.2093811	85.37016296	-1434.112793	169.4472809	96.32955933	-1350.456909	78.45465851	38.95628738	-1374.815552	289.6796265	47.32368469	-1391.23291	238.5754089	32.11028671	-1492.147705	175.3564453	708.3047485	-1006.637695	206.6827698	636.0786133	-992.7417603	160.9328918	647.6657104	-1009.819336	160.8083344	496.9376831	-1014.040649	209.3715668	461.4801636	-1151.744873	116.8068085	442.5372314	-1015.605408	91.52812195	323.3390808	-998.6218872	131.0928497	256.1143494	-983.2591553	85.06919861	262.2457275	-1002.497681	90.09873962	86.79845428	-1016.828308	153.0927734	97.00935364	-1084.314941	58.08282089	38.27807999	-1077.695923	261.5930481	43.18984222	-1022.301392	202.3587036	40.96699142	-937.2094727	279.6670227	1368.558838	-1225.786011	318.559021	1210.856567	-1227.223389	140.3502808	1413.545532	-1401.608154	129.1092529	1348.446289	-1515.376587	120.4802628	1298.058472	-1558.053833	154.3754883	1333.878784	-1574.796631	166.8926392	1296.970459	-1683.197266	189.744873	1210.875366	-1633.30835	196.5066986	1265.604736	-1768.69458	202.8352509	1229.307007	-1823.270874	241.3834991	1260.883789	-1816.589111	311.3318481	1189.885986	-1861.72168	254.1304321	1211.748657	-1904.59021	157.2753601	1403.82605	-1042.726685	168.2825928	1337.463867	-909.8994141	218.4768982	1329.36438	-866.9473877	173.4064636	1317.966797	-846.3245239	166.1026917	1291.556641	-795.7235107	222.4311371	1198.29895	-809.0244751	223.9678802	1274.596191	-673.1698608	274.9411926	1263.692383	-633.4978027	230.1617737	1250.492554	-613.1190796	313.1315613	1183.8125	-580.2288208	246.810379	1215.889893	-543.793457	1512.076416	1285.446655	-2307.382813	1540.678223	1283.417358	0	205.238	481.8459	-1355.4512	185.09	479.2089	-1082.8928	119.8816	81.4478	-1049.699	146.2764	80.2802	-1393.2806	233.329	873.6025	-1139.497	230.5459	873.8042	-1304.4
